PathFileType	4	(X/Y/Z)	C:\Users\Basilio\Documents\Thesis Gigler\squatting_fais\c3dfiles\075\SJ_pre4\markers_experimental.trc
DataRate	CameraRate	NumFrames	NumMarkers	Units	OrigDataRate	OrigDataStartFrame	OrigNumFrames
200.000000	200.000000	4	61	mm	200.000000	1015	1624
Frame#	Time	FHD			LBHD			RBHD			C7			T10			CLAV			LSHO			LUUPA			LMUPA			LDUPA			LLEP			LMEP			LRAD			LUL			LRFIN			RSHO			RUPA1			RMUPA			RDUPA			RLEP			RMEP			RRAD			RUL			RUFIN			LASI			RASI			USACR			LSACR			RSACR			LTHI1			LTHI2			LTHI3			LTHI4			LLFC			LMFC			LTIB1			LTIB2			LTIB3			LTIB4			LLMAL			LMMAL			LHEE			LMT1			LMT2			LMT5			RTHI			RTHI2			RTHI3			RTHI4			RLFC			RMFC			RTIB1			RTIB2			RTIB3			RTIB4			RLMAL			RMMAL			RHEE			RMT1			RMT2			RMT5			
		X1	Y1	Z1	X2	Y2	Z2	X3	Y3	Z3	X4	Y4	Z4	X5	Y5	Z5	X6	Y6	Z6	X7	Y7	Z7	X8	Y8	Z8	X9	Y9	Z9	X10	Y10	Z10	X11	Y11	Z11	X12	Y12	Z12	X13	Y13	Z13	X14	Y14	Z14	X15	Y15	Z15	X16	Y16	Z16	X17	Y17	Z17	X18	Y18	Z18	X19	Y19	Z19	X20	Y20	Z20	X21	Y21	Z21	X22	Y22	Z22	X23	Y23	Z23	X24	Y24	Z24	X25	Y25	Z25	X26	Y26	Z26	X27	Y27	Z27	X28	Y28	Z28	X29	Y29	Z29	X30	Y30	Z30	X31	Y31	Z31	X32	Y32	Z32	X33	Y33	Z33	X34	Y34	Z34	X35	Y35	Z35	X36	Y36	Z36	X37	Y37	Z37	X38	Y38	Z38	X39	Y39	Z39	X40	Y40	Z40	X41	Y41	Z41	X42	Y42	Z42	X43	Y43	Z43	X44	Y44	Z44	X45	Y45	Z45	X46	Y46	Z46	X47	Y47	Z47	X48	Y48	Z48	X49	Y49	Z49	X50	Y50	Z50	X51	Y51	Z51	X52	Y52	Z52	X53	Y53	Z53	X54	Y54	Z54	X55	Y55	Z55	X56	Y56	Z56	X57	Y57	Z57	X58	Y58	Z58	X59	Y59	Z59	X60	Y60	Z60	X61	Y61	Z61	

1016	5.075	-216.8005523681641	1999.616821289063	-905.5289306640627	-329.1802673339844	1851.287109375	-978.1853637695315	-307.0376586914063	1894.690551757813	-823.5950317382815	-338.9757080078126	1748.464233398438	-917.1499633789065	-366.5460815429688	1432.995727539063	-907.2086181640627	-183.2895050048828	1708.698852539063	-902.107849121094	-203.7602691650391	1745.5224609375	-1053.883178710938	-220.386703491211	1584.271850585938	-1224.54443359375	-192.4257049560547	1546.951293945313	-1204.044311523438	-214.5240631103516	1520.296142578125	-1254.369018554688	-217.2548217773438	1433.6318359375	-1269.955810546875	-303.4765014648438	1439.370239257813	-1242.075439453125	-268.6867980957032	1235.031982421875	-1124.8115234375	-231.6045684814454	1191.785766601563	-1175.933471679688	-231.6384582519532	1209.750122070313	-1081.963134765625	-232.8390045166016	1742.41015625	-751.5451049804689	-264.8016357421876	1584.23974609375	-589.4582519531251	-240.1470336914063	1542.699829101563	-604.5182495117189	-272.4537353515626	1520.618530273438	-558.2561035156251	-278.4265747070313	1450.252685546875	-540.2988281250001	-359.9673156738282	1437.191162109375	-560.1284790039064	-244.0008087158204	1209.98876953125	-636.7174072265626	-289.8822021484376	1234.638793945313	-693.4773559570314	-233.5332336425782	1226.712036132813	-732.0657348632814	-230.7742919921876	1219.536376953125	-1032.895141601563	-230.4632110595704	1234.86083984375	-779.4043579101565	-374.5553894042969	1331.221313476563	-909.009460449219	-383.8800048828126	1300.076293945313	-937.3562622070315	-384.2016906738282	1300.343872070313	-879.9609375000002	-318.3139953613282	1009.613647460938	-1113.348876953125	-288.9520874023438	931.7461547851565	-1122.476806640625	-241.2791900634766	937.1490478515627	-1118.699829101563	-314.4156188964844	877.8565673828127	-1108.881469726563	-317.8703308105469	769.9990844726565	-1103.00341796875	-246.0317535400391	752.9926147460939	-1000.639770507813	-255.2526855468751	647.1470947265626	-1096.7646484375	-325.3978881835938	609.5939331054689	-1133.217163085938	-280.7140502929688	603.7942504882814	-1125.9873046875	-275.0130615234376	520.9158325195314	-1106.5390625	-354.4018554687501	377.9797973632813	-1114.792846679688	-304.2581787109376	385.5476379394532	-1045.63818359375	-401.6977844238282	371.8703918457032	-1059.85205078125	-219.1630096435547	268.3109436035157	-1063.335815429688	-228.1651000976563	258.4939880371094	-1110.26220703125	-282.7214355468751	248.6031951904297	-1145.754760742188	-333.0299072265626	1056.714111328125	-705.7294311523439	-295.4970397949219	1004.239379882813	-694.4559936523439	-262.5765991210938	1009.453430175781	-697.3910522460939	-320.3870544433594	922.5422363281252	-703.1557617187501	-323.7914428710938	768.716735839844	-722.8164672851564	-250.1811828613282	749.9177856445314	-824.4216308593752	-257.5471496582032	617.6370239257814	-750.1487426757814	-323.1404113769532	546.6856079101564	-698.1051635742189	-278.5547485351563	539.1213989257814	-716.5770874023439	-278.4117736816407	489.6822204589845	-747.1608276367189	-356.0461425781251	365.7659606933594	-720.9404296875001	-304.8165283203126	387.1098022460939	-789.5273437500002	-402.4837036132814	370.5386657714844	-783.4166259765627	-222.1611022949219	267.3516235351563	-780.9089355468752	-231.0969238281251	254.0882873535157	-741.2599487304689	-284.7093811035157	231.1166534423829	-710.2576904296876	
1017	5.08	-218.3532867431641	2008.159790039063	-905.2158203125002	-330.3722229003907	1859.027587890625	-977.6582031250002	-308.3553161621094	1902.830810546875	-823.0522460937502	-339.3925170898438	1756.909301757813	-916.4394531250002	-366.7930908203126	1441.538208007813	-907.3101806640627	-184.1361236572266	1717.116088867188	-901.851501464844	-204.4567108154297	1753.966918945313	-1053.842651367188	-220.9370880126954	1592.430297851563	-1223.647705078125	-194.3901519775391	1554.921142578125	-1203.115600585938	-215.3776855468751	1528.317749023438	-1253.250122070313	-218.5736999511719	1441.68017578125	-1269.542602539063	-305.0212097167969	1447.548828125	-1241.394653320313	-269.4057617187501	1242.894287109375	-1124.708374023438	-232.3261871337891	1199.832275390625	-1175.95947265625	-231.2791290283204	1217.5224609375	-1081.846557617188	-233.0663757324219	1750.13818359375	-751.0429687500001	-264.6843872070313	1591.644165039063	-589.9100952148439	-240.6345672607422	1549.98779296875	-605.4813842773439	-272.3746032714844	1528.144897460938	-558.7579956054689	-279.1283874511719	1457.874145507813	-540.5985717773439	-360.8969421386719	1445.206176757813	-559.9224853515626	-244.6080780029297	1217.5146484375	-636.8109741210939	-290.1940307617188	1242.417602539063	-693.4918212890626	-233.939926147461	1234.639038085938	-730.8875732421876	-230.7468719482422	1227.351806640625	-1033.030395507813	-230.326644897461	1243.421875	-779.021667480469	-374.6605224609376	1339.092163085938	-908.920104980469	-383.6802673339844	1308.216430664063	-937.3601684570315	-384.261688232422	1308.447998046875	-879.9284667968752	-316.3578186035157	1017.213806152344	-1112.770141601563	-288.1609802246094	939.6011962890627	-1121.416259765625	-239.0011444091797	944.020935058594	-1115.752685546875	-313.2440185546876	885.3416137695315	-1107.810302734375	-317.1350708007813	777.324401855469	-1100.97021484375	-248.3854675292969	761.3964233398439	-996.5715332031252	-255.1111297607422	655.3548583984376	-1094.459350585938	-323.8638305664063	617.3652343750001	-1131.956420898438	-279.3943176269532	611.6631469726564	-1123.853149414063	-273.7510375976563	528.8882446289064	-1104.42822265625	-353.2587280273438	385.8633422851564	-1114.230712890625	-302.6315612792969	392.875701904297	-1044.751831054688	-400.2444458007814	378.3710937500001	-1059.5703125	-216.771957397461	276.4771728515626	-1064.028076171875	-225.2888488769532	267.4825744628907	-1111.169921875	-279.4864807128907	257.6474609375001	-1146.7314453125	-330.6299133300782	1064.674194335938	-704.9191894531251	-292.8934631347657	1012.216796875	-694.6971435546876	-260.0673522949219	1017.329406738281	-698.4479370117189	-318.4180297851563	930.626892089844	-703.1077880859376	-322.5942077636719	776.6933593750002	-723.2558593750001	-252.2189636230469	758.4624023437501	-827.084411621094	-257.2840270996094	625.9402465820314	-752.0600585937501	-321.6055603027344	554.8778686523439	-698.7206420898439	-277.5072326660157	547.5544433593751	-718.0850219726564	-278.0460510253907	498.0987243652345	-748.7080688476564	-354.7235717773438	374.0225830078126	-720.9452514648439	-304.8165588378907	395.4379882812501	-790.3115844726565	-401.875946044922	378.1745605468751	-782.7807617187502	-221.1385650634766	275.9663085937501	-782.1496582031252	-229.4596252441407	262.7155761718751	-742.4313354492189	-282.5883789062501	239.6996154785157	-710.5671997070314	
1018	5.085	-220.1105041503907	2016.544067382813	-904.9112548828127	-331.5591735839844	1867.18896484375	-977.2842407226565	-309.5377502441407	1910.957153320313	-822.6662597656252	-340.0581970214844	1765.335083007813	-915.9441528320315	-366.8952636718751	1449.822509765625	-907.429626464844	-184.9117584228516	1725.141967773438	-901.6726074218752	-204.8717651367188	1761.961059570313	-1053.85400390625	-221.5251464843751	1600.462768554688	-1222.983154296875	-194.8033294677735	1562.494384765625	-1201.445678710938	-216.2164154052735	1536.143798828125	-1252.357055664063	-220.0161437988282	1449.744384765625	-1269.24365234375	-306.5101623535157	1455.753540039063	-1241.204345703125	-269.8056030273438	1250.817749023438	-1124.482788085938	-232.9952850341797	1207.979370117188	-1176.125122070313	-231.6668395996094	1225.320068359375	-1081.884765625	-233.2364654541016	1757.764038085938	-750.4553222656251	-264.6308288574219	1599.140014648438	-590.2468261718751	-241.325424194336	1557.173583984375	-606.2622070312501	-272.5788574218751	1535.599487304688	-559.0667114257814	-279.8379821777344	1465.49658203125	-540.5863037109376	-361.6269531250001	1452.77001953125	-559.7524414062501	-244.9497070312501	1225.294677734375	-636.5114746093751	-290.7336120605469	1250.118408203125	-693.3639526367189	-234.1151123046876	1242.725219726563	-730.8343505859376	-230.6478271484376	1235.3037109375	-1033.017700195313	-230.1607055664063	1251.989013671875	-778.742858886719	-374.5657653808594	1347.090087890625	-908.9726562500002	-383.6828002929688	1315.769653320313	-937.3096923828127	-384.0231933593751	1316.3095703125	-879.822204589844	-314.7431335449219	1024.565795898438	-1112.178100585938	-286.7700500488282	946.7952270507815	-1120.12060546875	-237.6478271484376	951.1983032226565	-1113.313720703125	-313.1346435546876	893.0750732421877	-1106.980224609375	-316.4176635742188	784.331726074219	-1098.707641601563	-251.154525756836	769.422790527344	-993.1383056640627	-254.3516693115235	663.1076049804689	-1091.7578125	-323.0162048339844	625.2589721679689	-1130.4150390625	-278.4174194335938	619.6038818359376	-1121.98828125	-273.1036071777344	536.8467407226564	-1102.806030273438	-351.3349304199219	393.3432617187501	-1113.1484375	-300.8150329589844	399.8605957031251	-1043.82666015625	-398.210174560547	384.297332763672	-1058.539306640625	-213.1097717285157	284.4434814453126	-1065.474975585938	-221.9732208251954	276.0061950683594	-1112.39599609375	-276.3791198730469	266.8132629394532	-1148.463134765625	-328.1763000488282	1072.47509765625	-704.2497558593751	-290.5073852539063	1019.846618652344	-695.4049072265626	-257.6855163574219	1024.908935546875	-699.6066894531251	-316.5776672363282	938.3965454101565	-703.0416870117189	-321.9199523925782	784.2327270507815	-724.1152343750001	-254.271224975586	766.8070068359376	-829.8816528320315	-257.0412292480469	634.0465087890626	-753.8928222656251	-320.3044433593751	562.9029541015626	-699.4469604492189	-276.6050415039063	555.6238403320314	-719.4993896484376	-277.1321411132813	506.0932617187501	-749.8008422851564	-353.3493347167969	381.9811096191407	-721.1773681640626	-304.1541442871094	403.2293701171876	-791.041198730469	-401.1568908691407	385.3949279785157	-782.7088623046877	-219.8527984619141	284.0606689453126	-782.6199340820315	-227.6389160156251	271.1325683593751	-742.5856933593751	-280.4636840820313	248.2473144531251	-709.9909057617189	
1019	5.09	-221.0462951660157	2024.079223632813	-904.4333496093752	-332.8319396972657	1874.719604492188	-976.8609619140627	-310.8834533691407	1918.615844726563	-822.0277099609377	-341.1190185546876	1773.236328125	-915.5113525390627	-366.9136962890626	1457.650024414063	-907.3931274414065	-186.1635131835938	1733.055053710938	-901.7833251953127	-205.6769714355469	1769.76904296875	-1053.968627929688	-221.7788543701172	1608.347900390625	-1222.251831054688	-196.4466400146485	1569.990600585938	-1200.599365234375	-217.2457275390626	1543.943969726563	-1251.516357421875	-221.5307006835938	1457.713134765625	-1269.0830078125	-308.0684814453126	1463.767700195313	-1241.318115234375	-269.9752807617188	1258.618286132813	-1124.232299804688	-233.3829650878907	1216.123901367188	-1176.072021484375	-232.1815185546876	1232.88330078125	-1081.797973632813	-233.6189117431641	1765.057373046875	-750.1525878906251	-264.7608032226563	1606.4443359375	-590.3474731445314	-242.1714172363282	1564.31005859375	-606.7418823242189	-273.1206054687501	1542.972412109375	-559.1809082031251	-280.7947998046876	1472.978881835938	-540.3745117187501	-362.5826110839844	1460.502319335938	-559.6016235351564	-245.3597869873047	1232.977416992188	-636.3532104492189	-290.4335327148438	1257.734130859375	-693.1738281250001	-234.1955718994141	1250.480224609375	-730.3659667968751	-230.7692871093751	1242.5732421875	-1032.9541015625	-229.5348663330079	1259.983520507813	-778.2449340820315	-374.4172973632813	1354.666748046875	-908.870300292969	-383.6078796386719	1323.320068359375	-937.1428833007815	-383.9268798828126	1324.070678710938	-879.728942871094	-313.3682861328126	1031.692260742188	-1111.417602539063	-284.8137817382813	953.667663574219	-1118.6708984375	-236.5320739746094	958.204528808594	-1110.876831054688	-311.7201538085938	900.1025390625002	-1106.03466796875	-316.3806152343751	791.0911865234377	-1096.544189453125	-252.9334869384766	776.6663818359377	-990.0975341796877	-254.7663574218751	670.9346313476564	-1090.24560546875	-322.7091369628907	632.4656982421876	-1128.927490234375	-278.6852416992188	627.3068847656251	-1120.736328125	-271.6847534179688	544.3626098632814	-1100.850341796875	-349.4769592285157	400.5352478027345	-1111.791625976563	-298.6280517578126	406.6330871582032	-1042.798950195313	-395.8302001953126	389.676727294922	-1056.86865234375	-209.6306610107422	292.2718811035157	-1067.42333984375	-218.8385620117188	285.2153320312501	-1114.7255859375	-273.8096618652344	276.1071166992188	-1150.438232421875	-325.8872375488282	1080.072998046875	-703.6008911132814	-288.2033996582032	1027.470581054688	-695.7188110351564	-255.6676788330079	1032.226440429688	-700.8177490234376	-314.8621520996094	945.9927978515627	-703.2311401367189	-321.3069152832032	791.788269042969	-724.7647705078126	-256.5521850585938	774.842956542969	-832.6430664062502	-256.3622131347657	641.9884033203126	-754.8864746093751	-319.2925415039063	570.6289062500001	-700.2864990234376	-275.5047912597657	563.3603515625001	-720.7206420898439	-276.3169555664063	513.9127807617189	-751.1089477539064	-351.7654724121094	389.8093566894532	-721.6540527343751	-303.6835021972657	410.8094482421876	-792.1125488281252	-399.9566345214845	392.1068725585939	-782.9182128906252	-217.9925384521485	291.5527954101563	-782.1499023437502	-225.7846374511719	279.1000061035157	-742.1060180664064	-278.2541198730469	256.7971191406251	-708.6950073242189	
